<?xml version="1.0" encoding="UTF-8" standalone="no"?>
<!DOCTYPE svg PUBLIC "-//W3C//DTD SVG 1.1//EN"
 "http://www.w3.org/Graphics/SVG/1.1/DTD/svg11.dtd">
<!-- Generated by graphviz version 9.0.0 (20230911.1827)
 -->
<!-- Title: GridMPO Pages: 1 -->
<svg width="377pt" height="249pt"
 viewBox="0.00 0.00 376.89 248.59" xmlns="http://www.w3.org/2000/svg" xmlns:xlink="http://www.w3.org/1999/xlink">
<g id="graph0" class="graph" transform="scale(1 1) rotate(0) translate(4 244.59)">
<title>GridMPO</title>
<!-- A1_bra -->
<g id="node1" class="node">
<title>A1_bra</title>
<ellipse fill="#ffc000" stroke="black" cx="48.01" cy="-208.05" rx="28.8" ry="28.8"/>
<text text-anchor="middle" x="48.01" y="-203" font-family="Arial" font-size="14.00" fill="#00205b">A</text>
</g>
<!-- A2_bra -->
<g id="node2" class="node">
<title>A2_bra</title>
<ellipse fill="#ffc000" stroke="black" cx="134.29" cy="-211.79" rx="28.8" ry="28.8"/>
<text text-anchor="middle" x="134.29" y="-206.74" font-family="Arial" font-size="14.00" fill="#00205b">A</text>
</g>
<!-- A1_bra&#45;&gt;A2_bra -->
<g id="edge1" class="edge">
<title>A1_bra&#45;&gt;A2_bra</title>
<path fill="none" stroke="black" stroke-width="2" d="M77.22,-209.32C86.21,-209.71 96.11,-210.14 105.11,-210.53"/>
<text text-anchor="middle" x="91.16" y="-196.62" font-family="Arial Italic" font-size="14.00">τ₁</text>
</g>
<!-- W1_bra -->
<!-- A1_bra&#45;&gt;W1_bra -->
<g id="edge4" class="edge">
<title>A1_bra&#45;&gt;W1_bra</title>
<path fill="none" stroke="black" stroke-width="2" d="M36.95,-181.42C27.85,-159.5 16.12,-131.24 14,-126.13"/>
</g>
<!-- A3_bra -->
<g id="node3" class="node">
<title>A3_bra</title>
<ellipse fill="#ffc000" stroke="black" cx="221.92" cy="-211.2" rx="28.8" ry="28.8"/>
<text text-anchor="middle" x="221.92" y="-206.15" font-family="Arial" font-size="14.00" fill="#00205b">A</text>
</g>
<!-- A2_bra&#45;&gt;A3_bra -->
<g id="edge2" class="edge">
<title>A2_bra&#45;&gt;A3_bra</title>
<path fill="none" stroke="black" stroke-width="2" d="M163.47,-211.59C172.93,-211.53 183.42,-211.46 192.87,-211.39"/>
<text text-anchor="middle" x="178.17" y="-198.19" font-family="Arial Italic" font-size="14.00">τ₂</text>
</g>
<!-- W2_bra -->
<!-- A2_bra&#45;&gt;W2_bra -->
<g id="edge5" class="edge">
<title>A2_bra&#45;&gt;W2_bra</title>
<path fill="none" stroke="black" stroke-width="2" d="M130.8,-182.83C128.25,-161.6 125.13,-135.7 124.57,-131.03"/>
</g>
<!-- A4_bra -->
<g id="node4" class="node">
<title>A4_bra</title>
<ellipse fill="#ffc000" stroke="black" cx="307.64" cy="-207.03" rx="28.8" ry="28.8"/>
<text text-anchor="middle" x="307.64" y="-201.98" font-family="Arial" font-size="14.00" fill="#00205b">A</text>
</g>
<!-- A3_bra&#45;&gt;A4_bra -->
<g id="edge3" class="edge">
<title>A3_bra&#45;&gt;A4_bra</title>
<path fill="none" stroke="black" stroke-width="2" d="M250.94,-209.79C259.88,-209.35 269.71,-208.87 278.65,-208.44"/>
<text text-anchor="middle" x="264.8" y="-195.81" font-family="Arial Italic" font-size="14.00">τ₃</text>
</g>
<!-- W3_bra -->
<!-- A3_bra&#45;&gt;W3_bra -->
<g id="edge6" class="edge">
<title>A3_bra&#45;&gt;W3_bra</title>
<path fill="none" stroke="black" stroke-width="2" d="M224.66,-182.22C226.66,-160.97 229.11,-135.06 229.55,-130.39"/>
</g>
<!-- W4_bra -->
<!-- A4_bra&#45;&gt;W4_bra -->
<g id="edge7" class="edge">
<title>A4_bra&#45;&gt;W4_bra</title>
<path fill="none" stroke="black" stroke-width="2" d="M318.33,-179.84C326.79,-158.32 337.5,-131.07 339.44,-126.15"/>
</g>
<!-- W1 -->
<g id="node9" class="node">
<title>W1</title>
<ellipse fill="#00205b" stroke="black" cx="64.45" cy="-79.07" rx="28.8" ry="28.8"/>
<text text-anchor="middle" x="64.45" y="-74.02" font-family="Arial" font-size="14.00" fill="white">W</text>
</g>
<!-- W1_bra&#45;&gt;W1 -->
<g id="edge11" class="edge">
<title>W1_bra&#45;&gt;W1</title>
<path fill="none" stroke="black" stroke-width="2" d="M14.54,-124.52C17.99,-121.37 30.98,-109.55 42.84,-98.74"/>
<text text-anchor="middle" x="15.19" y="-98.33" font-family="Arial Italic" font-size="14.00">σ₁</text>
</g>
<!-- A1_ket -->
<g id="node13" class="node">
<title>A1_ket</title>
<ellipse fill="#ffc000" stroke="black" cx="28.8" cy="-36.12" rx="28.8" ry="28.8"/>
<text text-anchor="middle" x="28.8" y="-31.07" font-family="Arial" font-size="14.00" fill="#00205b">A</text>
</g>
<!-- W1_bra&#45;&gt;A1_ket -->
<g id="edge18" class="edge">
<title>W1_bra&#45;&gt;A1_ket</title>
<path fill="none" stroke="black" stroke-width="2" d="M13.83,-124.32C14.82,-118.46 19.98,-88.1 23.96,-64.62"/>
</g>
<!-- W2 -->
<g id="node10" class="node">
<title>W2</title>
<ellipse fill="#00205b" stroke="black" cx="155.78" cy="-76.35" rx="28.8" ry="28.8"/>
<text text-anchor="middle" x="155.78" y="-71.3" font-family="Arial" font-size="14.00" fill="white">W</text>
</g>
<!-- W2_bra&#45;&gt;W2 -->
<g id="edge12" class="edge">
<title>W2_bra&#45;&gt;W2</title>
<path fill="none" stroke="black" stroke-width="2" d="M125.02,-129.35C127.02,-125.91 134.2,-113.54 141.12,-101.62"/>
<text text-anchor="middle" x="146.57" y="-119.43" font-family="Arial Italic" font-size="14.00">σ₂</text>
</g>
<!-- A2_ket -->
<g id="node14" class="node">
<title>A2_ket</title>
<ellipse fill="#ffc000" stroke="black" cx="118.93" cy="-32.88" rx="28.8" ry="28.8"/>
<text text-anchor="middle" x="118.93" y="-27.83" font-family="Arial" font-size="14.00" fill="#00205b">A</text>
</g>
<!-- W2_bra&#45;&gt;A2_ket -->
<g id="edge19" class="edge">
<title>W2_bra&#45;&gt;A2_ket</title>
<path fill="none" stroke="black" stroke-width="2" d="M124.42,-129.19C124.04,-122.63 122.06,-87.89 120.59,-62"/>
</g>
<!-- W3 -->
<g id="node11" class="node">
<title>W3</title>
<ellipse fill="#00205b" stroke="black" cx="248.81" cy="-73.8" rx="28.8" ry="28.8"/>
<text text-anchor="middle" x="248.81" y="-68.75" font-family="Arial" font-size="14.00" fill="white">W</text>
</g>
<!-- W3_bra&#45;&gt;W3 -->
<g id="edge13" class="edge">
<title>W3_bra&#45;&gt;W3</title>
<path fill="none" stroke="black" stroke-width="2" d="M229.96,-128.68C231.13,-125.26 235.23,-113.34 239.3,-101.47"/>
<text text-anchor="middle" x="248.13" y="-119.03" font-family="Arial Italic" font-size="14.00">σ₃</text>
</g>
<!-- A3_ket -->
<g id="node15" class="node">
<title>A3_ket</title>
<ellipse fill="#ffc000" stroke="black" cx="209.45" cy="-31.25" rx="28.8" ry="28.8"/>
<text text-anchor="middle" x="209.45" y="-26.2" font-family="Arial" font-size="14.00" fill="#00205b">A</text>
</g>
<!-- W3_bra&#45;&gt;A3_ket -->
<g id="edge20" class="edge">
<title>W3_bra&#45;&gt;A3_ket</title>
<path fill="none" stroke="black" stroke-width="2" d="M229.4,-128.54C228.02,-121.83 220.66,-85.93 215.28,-59.68"/>
</g>
<!-- W4 -->
<g id="node12" class="node">
<title>W4</title>
<ellipse fill="#00205b" stroke="black" cx="340.09" cy="-67.39" rx="28.8" ry="28.8"/>
<text text-anchor="middle" x="340.09" y="-62.34" font-family="Arial" font-size="14.00" fill="white">W</text>
</g>
<!-- W4_bra&#45;&gt;W4 -->
<g id="edge14" class="edge">
<title>W4_bra&#45;&gt;W4</title>
<path fill="none" stroke="black" stroke-width="2" d="M339.75,-124.37C339.77,-120.85 339.84,-108.65 339.92,-96.43"/>
<text text-anchor="middle" x="326.33" y="-114.35" font-family="Arial Italic" font-size="14.00">σ₄</text>
</g>
<!-- A4_ket -->
<g id="node16" class="node">
<title>A4_ket</title>
<ellipse fill="#ffc000" stroke="black" cx="297.81" cy="-28.8" rx="28.8" ry="28.8"/>
<text text-anchor="middle" x="297.81" y="-23.75" font-family="Arial" font-size="14.00" fill="#00205b">A</text>
</g>
<!-- W4_bra&#45;&gt;A4_ket -->
<g id="edge21" class="edge">
<title>W4_bra&#45;&gt;A4_ket</title>
<path fill="none" stroke="black" stroke-width="2" d="M339.27,-124.29C336.36,-117.58 320.53,-81.12 309.3,-55.25"/>
</g>
<!-- W1&#45;&gt;W2 -->
<g id="edge8" class="edge">
<title>W1&#45;&gt;W2</title>
<path fill="none" stroke="black" stroke-width="2" d="M93.6,-78.2C104.14,-77.88 116.05,-77.53 126.59,-77.22"/>
<text text-anchor="middle" x="110.1" y="-64.41" font-family="Arial Italic" font-size="14.00">β₁</text>
</g>
<!-- W2&#45;&gt;W3 -->
<g id="edge9" class="edge">
<title>W2&#45;&gt;W3</title>
<path fill="none" stroke="black" stroke-width="2" d="M184.96,-75.55C196.04,-75.25 208.66,-74.9 219.73,-74.6"/>
<text text-anchor="middle" x="202.35" y="-61.78" font-family="Arial Italic" font-size="14.00">β₂</text>
</g>
<!-- W3&#45;&gt;W4 -->
<g id="edge10" class="edge">
<title>W3&#45;&gt;W4</title>
<path fill="none" stroke="black" stroke-width="2" d="M277.94,-71.76C288.48,-71.02 300.38,-70.18 310.92,-69.44"/>
<text text-anchor="middle" x="294.43" y="-57.3" font-family="Arial Italic" font-size="14.00">β₃</text>
</g>
<!-- A1_ket&#45;&gt;A2_ket -->
<g id="edge15" class="edge">
<title>A1_ket&#45;&gt;A2_ket</title>
<path fill="none" stroke="black" stroke-width="2" d="M57.81,-35.08C68,-34.71 79.45,-34.3 89.66,-33.93"/>
<text text-anchor="middle" x="73.74" y="-21.2" font-family="Arial Italic" font-size="14.00">τ₁</text>
</g>
<!-- A2_ket&#45;&gt;A3_ket -->
<g id="edge16" class="edge">
<title>A2_ket&#45;&gt;A3_ket</title>
<path fill="none" stroke="black" stroke-width="2" d="M148.07,-32.36C158.4,-32.17 170.03,-31.96 180.36,-31.78"/>
<text text-anchor="middle" x="164.21" y="-18.77" font-family="Arial Italic" font-size="14.00">τ₂</text>
</g>
<!-- A3_ket&#45;&gt;A4_ket -->
<g id="edge17" class="edge">
<title>A3_ket&#45;&gt;A4_ket</title>
<path fill="none" stroke="black" stroke-width="2" d="M238.38,-30.45C248.15,-30.18 259.04,-29.88 268.81,-29.61"/>
<text text-anchor="middle" x="253.6" y="-16.73" font-family="Arial Italic" font-size="14.00">τ₃</text>
</g>
</g>
</svg>
