<?xml version="1.0" encoding="UTF-8" standalone="no"?>
<!DOCTYPE svg PUBLIC "-//W3C//DTD SVG 1.1//EN"
 "http://www.w3.org/Graphics/SVG/1.1/DTD/svg11.dtd">
<!-- Generated by graphviz version 9.0.0 (20230911.1827)
 -->
<!-- Title: MPO Pages: 1 -->
<svg width="373pt" height="287pt"
 viewBox="0.00 0.00 372.80 287.30" xmlns="http://www.w3.org/2000/svg" xmlns:xlink="http://www.w3.org/1999/xlink">
<g id="graph0" class="graph" transform="scale(1 1) rotate(0) translate(4 283.3)">
<title>MPO</title>
<!-- W1 -->
<g id="node1" class="node">
<title>W1</title>
<ellipse fill="#00205b" stroke="black" cx="28.8" cy="-139.65" rx="28.8" ry="28.8"/>
<text text-anchor="middle" x="28.8" y="-134.6" font-family="Arial" font-size="14.00" fill="white">W</text>
</g>
<!-- W2 -->
<g id="node2" class="node">
<title>W2</title>
<ellipse fill="#00205b" stroke="black" cx="130.8" cy="-139.65" rx="28.8" ry="28.8"/>
<text text-anchor="middle" x="130.8" y="-134.6" font-family="Arial" font-size="14.00" fill="white">W</text>
</g>
<!-- W1&#45;&gt;W2 -->
<g id="edge5" class="edge">
<title>W1&#45;&gt;W2</title>
<path fill="none" stroke="black" stroke-width="2" d="M58.03,-139.65C71.69,-139.65 87.91,-139.65 101.57,-139.65"/>
<text text-anchor="middle" x="79.8" y="-146.6" font-family="Arial Italic" font-size="14.00">β₁</text>
</g>
<!-- W1_ket -->
<!-- W1&#45;&gt;W1_ket -->
<g id="edge8" class="edge">
<title>W1&#45;&gt;W1_ket</title>
<path fill="none" stroke="black" stroke-width="2" d="M28.8,-110.62C28.8,-94.37 28.8,-73.97 28.8,-57.74"/>
<text text-anchor="middle" x="42.3" y="-79.55" font-family="Arial Italic" font-size="14.00">n₁</text>
</g>
<!-- W3 -->
<g id="node3" class="node">
<title>W3</title>
<ellipse fill="#00205b" stroke="black" cx="232.8" cy="-139.65" rx="28.8" ry="28.8"/>
<text text-anchor="middle" x="232.8" y="-134.6" font-family="Arial" font-size="14.00" fill="white">W</text>
</g>
<!-- W2&#45;&gt;W3 -->
<g id="edge6" class="edge">
<title>W2&#45;&gt;W3</title>
<path fill="none" stroke="black" stroke-width="2" d="M160.03,-139.65C173.69,-139.65 189.91,-139.65 203.57,-139.65"/>
<text text-anchor="middle" x="181.8" y="-146.6" font-family="Arial Italic" font-size="14.00">β₂</text>
</g>
<!-- W2_ket -->
<!-- W2&#45;&gt;W2_ket -->
<g id="edge9" class="edge">
<title>W2&#45;&gt;W2_ket</title>
<path fill="none" stroke="black" stroke-width="2" d="M130.8,-110.62C130.8,-94.37 130.8,-73.97 130.8,-57.74"/>
<text text-anchor="middle" x="144.3" y="-79.55" font-family="Arial Italic" font-size="14.00">n₂</text>
</g>
<!-- W4 -->
<g id="node4" class="node">
<title>W4</title>
<ellipse fill="#00205b" stroke="black" cx="334.8" cy="-139.65" rx="28.8" ry="28.8"/>
<text text-anchor="middle" x="334.8" y="-134.6" font-family="Arial" font-size="14.00" fill="white">W</text>
</g>
<!-- W3&#45;&gt;W4 -->
<g id="edge7" class="edge">
<title>W3&#45;&gt;W4</title>
<path fill="none" stroke="black" stroke-width="2" d="M262.03,-139.65C275.69,-139.65 291.91,-139.65 305.57,-139.65"/>
<text text-anchor="middle" x="283.8" y="-146.6" font-family="Arial Italic" font-size="14.00">β₃</text>
</g>
<!-- W3_ket -->
<!-- W3&#45;&gt;W3_ket -->
<g id="edge10" class="edge">
<title>W3&#45;&gt;W3_ket</title>
<path fill="none" stroke="black" stroke-width="2" d="M232.8,-110.62C232.8,-94.37 232.8,-73.97 232.8,-57.74"/>
<text text-anchor="middle" x="246.3" y="-79.55" font-family="Arial Italic" font-size="14.00">n₃</text>
</g>
<!-- W4_ket -->
<!-- W4&#45;&gt;W4_ket -->
<g id="edge11" class="edge">
<title>W4&#45;&gt;W4_ket</title>
<path fill="none" stroke="black" stroke-width="2" d="M334.8,-110.62C334.8,-94.37 334.8,-73.97 334.8,-57.74"/>
<text text-anchor="middle" x="348.3" y="-79.55" font-family="Arial Italic" font-size="14.00">n₄</text>
</g>
<!-- W1_bra -->
<!-- W1_bra&#45;&gt;W1 -->
<g id="edge1" class="edge">
<title>W1_bra&#45;&gt;W1</title>
<path fill="none" stroke="black" stroke-width="2" d="M28.8,-221.47C28.8,-205.22 28.8,-184.82 28.8,-168.59"/>
<text text-anchor="middle" x="43.8" y="-190.4" font-family="Arial Italic" font-size="14.00">n₁′</text>
</g>
<!-- W2_bra -->
<!-- W2_bra&#45;&gt;W2 -->
<g id="edge2" class="edge">
<title>W2_bra&#45;&gt;W2</title>
<path fill="none" stroke="black" stroke-width="2" d="M130.8,-221.47C130.8,-205.22 130.8,-184.82 130.8,-168.59"/>
<text text-anchor="middle" x="145.8" y="-190.4" font-family="Arial Italic" font-size="14.00">n₂′</text>
</g>
<!-- W3_bra -->
<!-- W3_bra&#45;&gt;W3 -->
<g id="edge3" class="edge">
<title>W3_bra&#45;&gt;W3</title>
<path fill="none" stroke="black" stroke-width="2" d="M232.8,-221.47C232.8,-205.22 232.8,-184.82 232.8,-168.59"/>
<text text-anchor="middle" x="247.8" y="-190.4" font-family="Arial Italic" font-size="14.00">n₃′</text>
</g>
<!-- W4_bra -->
<!-- W4_bra&#45;&gt;W4 -->
<g id="edge4" class="edge">
<title>W4_bra&#45;&gt;W4</title>
<path fill="none" stroke="black" stroke-width="2" d="M334.8,-221.47C334.8,-205.22 334.8,-184.82 334.8,-168.59"/>
<text text-anchor="middle" x="349.8" y="-190.4" font-family="Arial Italic" font-size="14.00">n₄′</text>
</g>
</g>
</svg>
