<?xml version="1.0" encoding="UTF-8" standalone="no"?>
<!DOCTYPE svg PUBLIC "-//W3C//DTD SVG 1.1//EN"
 "http://www.w3.org/Graphics/SVG/1.1/DTD/svg11.dtd">
<!-- Generated by graphviz version 9.0.0 (20230911.1827)
 -->
<!-- Title: MPS Pages: 1 -->
<svg width="363pt" height="176pt"
 viewBox="0.00 0.00 362.60 176.45" xmlns="http://www.w3.org/2000/svg" xmlns:xlink="http://www.w3.org/1999/xlink">
<g id="graph0" class="graph" transform="scale(1 1) rotate(0) translate(4 172.45)">
<title>MPS</title>
<!-- A1 -->
<g id="node1" class="node">
<title>A1</title>
<ellipse fill="#00205b" stroke="black" cx="28.8" cy="-28.8" rx="28.8" ry="28.8"/>
<text text-anchor="middle" x="28.8" y="-23.75" font-family="Arial" font-size="14.00" fill="white">A</text>
</g>
<!-- A2 -->
<g id="node2" class="node">
<title>A2</title>
<ellipse fill="#00205b" stroke="black" cx="127.8" cy="-28.8" rx="28.8" ry="28.8"/>
<text text-anchor="middle" x="127.8" y="-23.75" font-family="Arial" font-size="14.00" fill="white">A</text>
</g>
<!-- A1&#45;&gt;A2 -->
<g id="edge5" class="edge">
<title>A1&#45;&gt;A2</title>
<path fill="none" stroke="black" stroke-width="2" d="M57.97,-28.8C70.86,-28.8 85.97,-28.8 98.84,-28.8"/>
<text text-anchor="middle" x="78.3" y="-35.75" font-family="Arial Italic" font-size="14.00">τ₁</text>
</g>
<!-- A3 -->
<g id="node3" class="node">
<title>A3</title>
<ellipse fill="#00205b" stroke="black" cx="226.8" cy="-28.8" rx="28.8" ry="28.8"/>
<text text-anchor="middle" x="226.8" y="-23.75" font-family="Arial" font-size="14.00" fill="white">A</text>
</g>
<!-- A2&#45;&gt;A3 -->
<g id="edge6" class="edge">
<title>A2&#45;&gt;A3</title>
<path fill="none" stroke="black" stroke-width="2" d="M156.97,-28.8C169.86,-28.8 184.97,-28.8 197.84,-28.8"/>
<text text-anchor="middle" x="177.3" y="-35.75" font-family="Arial Italic" font-size="14.00">τ₂</text>
</g>
<!-- A4 -->
<g id="node4" class="node">
<title>A4</title>
<ellipse fill="#00205b" stroke="black" cx="325.8" cy="-28.8" rx="28.8" ry="28.8"/>
<text text-anchor="middle" x="325.8" y="-23.75" font-family="Arial" font-size="14.00" fill="white">A</text>
</g>
<!-- A3&#45;&gt;A4 -->
<g id="edge7" class="edge">
<title>A3&#45;&gt;A4</title>
<path fill="none" stroke="black" stroke-width="2" d="M255.97,-28.8C268.86,-28.8 283.97,-28.8 296.84,-28.8"/>
<text text-anchor="middle" x="276.3" y="-35.75" font-family="Arial Italic" font-size="14.00">τ₃</text>
</g>
<!-- A1_dummy -->
<!-- A1_dummy&#45;&gt;A1 -->
<g id="edge1" class="edge">
<title>A1_dummy&#45;&gt;A1</title>
<path fill="none" stroke="black" stroke-width="2" d="M28.8,-110.62C28.8,-94.37 28.8,-73.97 28.8,-57.74"/>
<text text-anchor="middle" x="42.3" y="-79.55" font-family="Arial Italic" font-size="14.00">n₁</text>
</g>
<!-- A2_dummy -->
<!-- A2_dummy&#45;&gt;A2 -->
<g id="edge2" class="edge">
<title>A2_dummy&#45;&gt;A2</title>
<path fill="none" stroke="black" stroke-width="2" d="M127.8,-110.62C127.8,-94.37 127.8,-73.97 127.8,-57.74"/>
<text text-anchor="middle" x="141.3" y="-79.55" font-family="Arial Italic" font-size="14.00">n₂</text>
</g>
<!-- A3_dummy -->
<!-- A3_dummy&#45;&gt;A3 -->
<g id="edge3" class="edge">
<title>A3_dummy&#45;&gt;A3</title>
<path fill="none" stroke="black" stroke-width="2" d="M226.8,-110.62C226.8,-94.37 226.8,-73.97 226.8,-57.74"/>
<text text-anchor="middle" x="240.3" y="-79.55" font-family="Arial Italic" font-size="14.00">n₃</text>
</g>
<!-- A4_dummy -->
<!-- A4_dummy&#45;&gt;A4 -->
<g id="edge4" class="edge">
<title>A4_dummy&#45;&gt;A4</title>
<path fill="none" stroke="black" stroke-width="2" d="M325.8,-110.62C325.8,-94.37 325.8,-73.97 325.8,-57.74"/>
<text text-anchor="middle" x="339.3" y="-79.55" font-family="Arial Italic" font-size="14.00">n₄</text>
</g>
</g>
</svg>
