<?xml version="1.0" encoding="UTF-8" standalone="no"?>
<!DOCTYPE svg PUBLIC "-//W3C//DTD SVG 1.1//EN"
 "http://www.w3.org/Graphics/SVG/1.1/DTD/svg11.dtd">
<!-- Generated by graphviz version 10.0.1 (20240210.2158)
 -->
<!-- Title: MPS Pages: 1 -->
<svg width="531pt" height="177pt"
 viewBox="0.00 0.00 530.60 177.20" xmlns="http://www.w3.org/2000/svg" xmlns:xlink="http://www.w3.org/1999/xlink">
<g id="graph0" class="graph" transform="scale(1 1) rotate(0) translate(4 173.2)">
<title>MPS</title>
<!-- A1 -->
<g id="node1" class="node">
<title>A1</title>
<ellipse fill="#00205b" stroke="black" cx="28.8" cy="-28.8" rx="28.8" ry="28.8"/>
<text text-anchor="middle" x="28.8" y="-23.37" font-family="Arial" font-size="14.00" fill="white">A</text>
</g>
<!-- A2 -->
<g id="node2" class="node">
<title>A2</title>
<ellipse fill="#00205b" stroke="black" cx="121.8" cy="-28.8" rx="28.8" ry="28.8"/>
<text text-anchor="middle" x="121.8" y="-23.37" font-family="Arial" font-size="14.00" fill="white">A</text>
</g>
<!-- A1&#45;&gt;A2 -->
<g id="edge7" class="edge">
<title>A1&#45;&gt;A2</title>
<path fill="none" stroke="black" stroke-width="2" d="M57.97,-28.8C69.05,-28.8 81.66,-28.8 92.73,-28.8"/>
<text text-anchor="middle" x="75.3" y="-35.75" font-family="Arial Italic" font-size="14.00">Ï„â‚</text>
</g>
<!-- A3 -->
<g id="node3" class="node">
<title>A3</title>
<ellipse fill="#00205b" stroke="black" cx="214.8" cy="-28.8" rx="28.8" ry="28.8"/>
<text text-anchor="middle" x="214.8" y="-23.37" font-family="Arial" font-size="14.00" fill="white">A</text>
</g>
<!-- A2&#45;&gt;A3 -->
<g id="edge8" class="edge">
<title>A2&#45;&gt;A3</title>
<path fill="none" stroke="black" stroke-width="2" d="M150.97,-28.8C162.05,-28.8 174.66,-28.8 185.73,-28.8"/>
<text text-anchor="middle" x="168.3" y="-35.75" font-family="Arial Italic" font-size="14.00">Ï„â‚‚</text>
</g>
<!-- A4 -->
<g id="node4" class="node">
<title>A4</title>
<ellipse fill="#00205b" stroke="black" cx="307.8" cy="-28.8" rx="28.8" ry="28.8"/>
<text text-anchor="middle" x="307.8" y="-23.37" font-family="Arial" font-size="14.00" fill="white">A</text>
</g>
<!-- A3&#45;&gt;A4 -->
<g id="edge9" class="edge">
<title>A3&#45;&gt;A4</title>
<path fill="none" stroke="black" stroke-width="2" d="M243.97,-28.8C255.05,-28.8 267.66,-28.8 278.73,-28.8"/>
<text text-anchor="middle" x="261.3" y="-35.75" font-family="Arial Italic" font-size="14.00">Ï„â‚ƒ</text>
</g>
<!-- A5 -->
<g id="node5" class="node">
<title>A5</title>
<ellipse fill="#00205b" stroke="black" cx="400.8" cy="-28.8" rx="28.8" ry="28.8"/>
<text text-anchor="middle" x="400.8" y="-23.37" font-family="Arial" font-size="14.00" fill="white">A</text>
</g>
<!-- A4&#45;&gt;A5 -->
<g id="edge10" class="edge">
<title>A4&#45;&gt;A5</title>
<path fill="none" stroke="black" stroke-width="2" d="M336.97,-28.8C348.05,-28.8 360.66,-28.8 371.73,-28.8"/>
<text text-anchor="middle" x="354.3" y="-35.75" font-family="Arial Italic" font-size="14.00">Ï„â‚„</text>
</g>
<!-- A6 -->
<g id="node6" class="node">
<title>A6</title>
<ellipse fill="#00205b" stroke="black" cx="493.8" cy="-28.8" rx="28.8" ry="28.8"/>
<text text-anchor="middle" x="493.8" y="-23.37" font-family="Arial" font-size="14.00" fill="white">A</text>
</g>
<!-- A5&#45;&gt;A6 -->
<g id="edge11" class="edge">
<title>A5&#45;&gt;A6</title>
<path fill="none" stroke="black" stroke-width="2" d="M429.97,-28.8C441.05,-28.8 453.66,-28.8 464.73,-28.8"/>
<text text-anchor="middle" x="447.3" y="-35.75" font-family="Arial Italic" font-size="14.00">Ï„â‚…</text>
</g>
<!-- A1_dummy -->
<!-- A1_dummy&#45;&gt;A1 -->
<g id="edge1" class="edge">
<title>A1_dummy&#45;&gt;A1</title>
<path fill="none" stroke="black" stroke-width="2" d="M28.8,-111.18C28.8,-94.81 28.8,-74.28 28.8,-57.93"/>
<text text-anchor="middle" x="35.93" y="-80.3" font-family="Arial Italic" font-size="14.00">ğœâ‚</text>
</g>
<!-- A2_dummy -->
<!-- A2_dummy&#45;&gt;A2 -->
<g id="edge2" class="edge">
<title>A2_dummy&#45;&gt;A2</title>
<path fill="none" stroke="black" stroke-width="2" d="M121.8,-111.18C121.8,-94.81 121.8,-74.28 121.8,-57.93"/>
<text text-anchor="middle" x="128.93" y="-80.3" font-family="Arial Italic" font-size="14.00">ğœâ‚‚</text>
</g>
<!-- A3_dummy -->
<!-- A3_dummy&#45;&gt;A3 -->
<g id="edge3" class="edge">
<title>A3_dummy&#45;&gt;A3</title>
<path fill="none" stroke="black" stroke-width="2" d="M214.8,-111.18C214.8,-94.81 214.8,-74.28 214.8,-57.93"/>
<text text-anchor="middle" x="221.93" y="-80.3" font-family="Arial Italic" font-size="14.00">ğœâ‚ƒ</text>
</g>
<!-- A4_dummy -->
<!-- A4_dummy&#45;&gt;A4 -->
<g id="edge4" class="edge">
<title>A4_dummy&#45;&gt;A4</title>
<path fill="none" stroke="black" stroke-width="2" d="M307.8,-111.18C307.8,-94.81 307.8,-74.28 307.8,-57.93"/>
<text text-anchor="middle" x="314.93" y="-80.3" font-family="Arial Italic" font-size="14.00">ğœâ‚„</text>
</g>
<!-- A5_dummy -->
<!-- A5_dummy&#45;&gt;A5 -->
<g id="edge5" class="edge">
<title>A5_dummy&#45;&gt;A5</title>
<path fill="none" stroke="black" stroke-width="2" d="M400.8,-111.18C400.8,-94.81 400.8,-74.28 400.8,-57.93"/>
<text text-anchor="middle" x="407.93" y="-80.3" font-family="Arial Italic" font-size="14.00">ğœâ‚…</text>
</g>
<!-- A6_dummy -->
<!-- A6_dummy&#45;&gt;A6 -->
<g id="edge6" class="edge">
<title>A6_dummy&#45;&gt;A6</title>
<path fill="none" stroke="black" stroke-width="2" d="M493.8,-111.18C493.8,-94.81 493.8,-74.28 493.8,-57.93"/>
<text text-anchor="middle" x="500.93" y="-80.3" font-family="Arial Italic" font-size="14.00">ğœâ‚†</text>
</g>
</g>
</svg>
