<?xml version="1.0" encoding="UTF-8" standalone="no"?>
<!DOCTYPE svg PUBLIC "-//W3C//DTD SVG 1.1//EN"
 "http://www.w3.org/Graphics/SVG/1.1/DTD/svg11.dtd">
<!-- Generated by graphviz version 9.0.0 (20230911.1827)
 -->
<!-- Title: MPS Pages: 1 -->
<svg width="152pt" height="81pt"
 viewBox="0.00 0.00 152.00 80.72" xmlns="http://www.w3.org/2000/svg" xmlns:xlink="http://www.w3.org/1999/xlink">
<g id="graph0" class="graph" transform="scale(1 1) rotate(0) translate(4 76.72)">
<title>MPS</title>
<polygon fill="white" stroke="none" points="-4,4 -4,-76.72 148,-76.72 148,4 -4,4"/>
<!-- A -->
<g id="node1" class="node">
<title>A</title>
<ellipse fill="#9558b2" stroke="black" cx="18" cy="-54.72" rx="18" ry="18"/>
<text text-anchor="middle" x="18" y="-49.3" font-family="Times New Roman,serif" font-size="14.00">A</text>
</g>
<!-- B -->
<g id="node2" class="node">
<title>B</title>
<ellipse fill="#ea6b5a" stroke="black" cx="72" cy="-54.72" rx="18" ry="18"/>
<text text-anchor="middle" x="72" y="-49.3" font-family="Times New Roman,serif" font-size="14.00">A</text>
</g>
<!-- A&#45;&gt;B -->
<g id="edge4" class="edge">
<title>A&#45;&gt;B</title>
<path fill="none" stroke="black" d="M36.14,-54.72C41.93,-54.72 47.72,-54.72 53.51,-54.72"/>
</g>
<!-- A_dummy -->
<!-- A&#45;&gt;A_dummy -->
<g id="edge1" class="edge">
<title>A&#45;&gt;A_dummy</title>
<path fill="none" stroke="black" d="M18,-36.37C18,-21.87 18,-3.23 18,-0.95"/>
</g>
<!-- C -->
<g id="node3" class="node">
<title>C</title>
<ellipse fill="#60bb93" stroke="black" cx="126" cy="-54.72" rx="18" ry="18"/>
<text text-anchor="middle" x="126" y="-49.3" font-family="Times New Roman,serif" font-size="14.00">A</text>
</g>
<!-- B&#45;&gt;C -->
<g id="edge5" class="edge">
<title>B&#45;&gt;C</title>
<path fill="none" stroke="black" d="M90.14,-54.72C95.93,-54.72 101.72,-54.72 107.51,-54.72"/>
</g>
<!-- B_dummy -->
<!-- B&#45;&gt;B_dummy -->
<g id="edge2" class="edge">
<title>B&#45;&gt;B_dummy</title>
<path fill="none" stroke="black" d="M72,-36.37C72,-21.87 72,-3.23 72,-0.95"/>
</g>
<!-- C_dummy -->
<!-- C&#45;&gt;C_dummy -->
<g id="edge3" class="edge">
<title>C&#45;&gt;C_dummy</title>
<path fill="none" stroke="black" d="M126,-36.37C126,-21.87 126,-3.23 126,-0.95"/>
</g>
</g>
</svg>
