<?xml version="1.0" encoding="UTF-8" standalone="no"?>
<!DOCTYPE svg PUBLIC "-//W3C//DTD SVG 1.1//EN"
 "http://www.w3.org/Graphics/SVG/1.1/DTD/svg11.dtd">
<!-- Generated by graphviz version 9.0.0 (20230911.1827)
 -->
<!-- Title: SVG Pages: 1 -->
<svg width="438pt" height="66pt"
 viewBox="0.00 0.00 437.60 65.60" xmlns="http://www.w3.org/2000/svg" xmlns:xlink="http://www.w3.org/1999/xlink">
<g id="graph0" class="graph" transform="scale(1 1) rotate(0) translate(4 61.6)">
<title>SVG</title>
<!-- U -->
<g id="node1" class="node">
<title>U</title>
<ellipse fill="#00205b" stroke="black" cx="121.8" cy="-28.8" rx="28.8" ry="28.8"/>
<text text-anchor="middle" x="121.8" y="-23.75" font-family="Arial" font-size="14.00" fill="white">U</text>
</g>
<!-- Sigma -->
<g id="node2" class="node">
<title>Sigma</title>
<ellipse fill="#00205b" stroke="black" cx="214.8" cy="-28.8" rx="28.8" ry="28.8"/>
<text text-anchor="middle" x="214.8" y="-23.75" font-family="Arial" font-size="14.00" fill="white">Σ</text>
</g>
<!-- U&#45;&gt;Sigma -->
<g id="edge2" class="edge">
<title>U&#45;&gt;Sigma</title>
<path fill="none" stroke="black" d="M150.97,-28.8C162.05,-28.8 174.66,-28.8 185.73,-28.8"/>
<text text-anchor="middle" x="168.3" y="-34.25" font-family="Times New Roman,serif" font-size="14.00">k</text>
</g>
<!-- V -->
<g id="node3" class="node">
<title>V</title>
<ellipse fill="#00205b" stroke="black" cx="307.8" cy="-28.8" rx="28.8" ry="28.8"/>
<text text-anchor="middle" x="307.8" y="-23.75" font-family="Arial" font-size="14.00" fill="white">V⊺</text>
</g>
<!-- Sigma&#45;&gt;V -->
<g id="edge3" class="edge">
<title>Sigma&#45;&gt;V</title>
<path fill="none" stroke="black" d="M243.97,-28.8C255.05,-28.8 267.66,-28.8 278.73,-28.8"/>
<text text-anchor="middle" x="261.3" y="-34.25" font-family="Times New Roman,serif" font-size="14.00">k</text>
</g>
<!-- V_dummy -->
<!-- V&#45;&gt;V_dummy -->
<g id="edge4" class="edge">
<title>V&#45;&gt;V_dummy</title>
<path fill="none" stroke="black" d="M336.97,-28.8C348.05,-28.8 360.66,-28.8 371.73,-28.8"/>
<text text-anchor="middle" x="354.3" y="-34.25" font-family="Times New Roman,serif" font-size="14.00">j</text>
</g>
<!-- U_dummy -->
<!-- U_dummy&#45;&gt;U -->
<g id="edge1" class="edge">
<title>U_dummy&#45;&gt;U</title>
<path fill="none" stroke="black" d="M57.97,-28.8C69.05,-28.8 81.66,-28.8 92.73,-28.8"/>
<text text-anchor="middle" x="75.3" y="-34.25" font-family="Times New Roman,serif" font-size="14.00">i</text>
</g>
</g>
</svg>
