<?xml version="1.0" encoding="UTF-8" standalone="no"?>
<!DOCTYPE svg PUBLIC "-//W3C//DTD SVG 1.1//EN"
 "http://www.w3.org/Graphics/SVG/1.1/DTD/svg11.dtd">
<!-- Generated by graphviz version 10.0.1 (20240210.2158)
 -->
<!-- Title: Tensor Pages: 1 -->
<svg width="362pt" height="173pt"
 viewBox="0.00 0.00 362.00 172.50" xmlns="http://www.w3.org/2000/svg" xmlns:xlink="http://www.w3.org/1999/xlink">
<g id="graph0" class="graph" transform="scale(1 1) rotate(0) translate(4 168.5)">
<title>Tensor</title>
<g id="clust2" class="cluster">
<title>cluster_C</title>
<path fill="#00205b" stroke="black" d="M32,-8C32,-8 330,-8 330,-8 336,-8 342,-14 342,-20 342,-20 342,-72.5 342,-72.5 342,-78.5 336,-84.5 330,-84.5 330,-84.5 32,-84.5 32,-84.5 26,-84.5 20,-78.5 20,-72.5 20,-72.5 20,-20 20,-20 20,-14 26,-8 32,-8"/>
<text text-anchor="middle" x="181" y="-67.2" font-family="Times,serif" font-size="14.00" fill="white">C</text>
</g>
<!-- A1_dummy -->
<!-- A1 -->
<!-- A1_dummy&#45;&gt;A1 -->
<!-- A2_dummy -->
<!-- A2 -->
<!-- A2_dummy&#45;&gt;A2 -->
<!-- A3_dummy -->
<!-- A3 -->
<!-- A3_dummy&#45;&gt;A3 -->
<!-- A4_dummy -->
<!-- A4 -->
<!-- A4_dummy&#45;&gt;A4 -->
<!-- A5_dummy -->
<!-- A5 -->
<!-- A5_dummy&#45;&gt;A5 -->
<!-- A6_dummy -->
<!-- A6 -->
<!-- A6_dummy&#45;&gt;A6 -->
<!-- A1&#45;&gt;A1_dummy -->
<g id="edge7" class="edge">
<title>A1&#45;&gt;A1_dummy</title>
<path fill="none" stroke="black" stroke-width="2" d="M41.71,-51.94C36.43,-72.78 27.52,-107.95 22.25,-128.72"/>
<text text-anchor="middle" x="39.12" y="-97.2" font-family="Arial Italic" font-size="14.00">ğœâ‚</text>
</g>
<!-- A2&#45;&gt;A2_dummy -->
<g id="edge8" class="edge">
<title>A2&#45;&gt;A2_dummy</title>
<path fill="none" stroke="black" stroke-width="2" d="M96.32,-51.94C91.79,-72.78 84.16,-107.95 79.65,-128.72"/>
<text text-anchor="middle" x="94.12" y="-97.2" font-family="Arial Italic" font-size="14.00">ğœâ‚‚</text>
</g>
<!-- A3&#45;&gt;A3_dummy -->
<g id="edge9" class="edge">
<title>A3&#45;&gt;A3_dummy</title>
<path fill="none" stroke="black" stroke-width="2" d="M151.52,-52.14C148.52,-72.85 143.51,-107.48 140.5,-128.23"/>
<text text-anchor="middle" x="153.12" y="-97.2" font-family="Arial Italic" font-size="14.00">ğœâ‚ƒ</text>
</g>
<!-- A4&#45;&gt;A4_dummy -->
<g id="edge10" class="edge">
<title>A4&#45;&gt;A4_dummy</title>
<path fill="none" stroke="black" stroke-width="2" d="M206.76,-52.14C205.26,-72.85 202.75,-107.48 201.25,-128.23"/>
<text text-anchor="middle" x="214.12" y="-97.2" font-family="Arial Italic" font-size="14.00">ğœâ‚„</text>
</g>
<!-- A5&#45;&gt;A5_dummy -->
<g id="edge11" class="edge">
<title>A5&#45;&gt;A5_dummy</title>
<path fill="none" stroke="black" stroke-width="2" d="M262,-52.14C262,-72.85 262,-107.48 262,-128.23"/>
<text text-anchor="middle" x="276.12" y="-97.2" font-family="Arial Italic" font-size="14.00">ğœâ‚…</text>
</g>
<!-- A6&#45;&gt;A6_dummy -->
<g id="edge12" class="edge">
<title>A6&#45;&gt;A6_dummy</title>
<path fill="none" stroke="black" stroke-width="2" d="M319.07,-51.94C322.84,-72.78 329.2,-107.95 332.96,-128.72"/>
<text text-anchor="middle" x="339.12" y="-97.2" font-family="Arial Italic" font-size="14.00">ğœâ‚†</text>
</g>
</g>
</svg>
